<svg xmlns="http://www.w3.org/2000/svg" viewBox="0 0 512 512" role="img" aria-label="LifePilot logo">
  <defs>
    <filter id="softShadow" x="-15%" y="-15%" width="130%" height="130%">
      <feDropShadow dx="8" dy="10" stdDeviation="2.2" flood-color="#111111" flood-opacity="0.95"/>
      <feDropShadow dx="0" dy="3" stdDeviation="6" flood-color="#6b65bb" flood-opacity="0.35"/>
    </filter>
    <linearGradient id="paper" x1="120" y1="68" x2="360" y2="390" gradientUnits="userSpaceOnUse">
      <stop stop-color="#FFF9EF"/>
      <stop offset="1" stop-color="#F7ECD9"/>
    </linearGradient>
    <linearGradient id="lime" x1="315" y1="302" x2="454" y2="438" gradientUnits="userSpaceOnUse">
      <stop stop-color="#DFFF55"/>
      <stop offset="1" stop-color="#B9EA31"/>
    </linearGradient>
    <linearGradient id="purple" x1="165" y1="76" x2="343" y2="255" gradientUnits="userSpaceOnUse">
      <stop stop-color="#C7BBFF"/>
      <stop offset="1" stop-color="#8777FF"/>
    </linearGradient>
  </defs>

  <rect width="512" height="512" rx="88" fill="#C7C8F4"/>
  <g filter="url(#softShadow)">
    <path d="M154 63h194c33 0 60 27 60 60v253c0 33-27 60-60 60H154c-33 0-60-27-60-60V123c0-33 27-60 60-60Z" fill="url(#paper)" stroke="#111111" stroke-width="12"/>
    <path d="M409 119h27c18 0 32 14 32 32v45c0 18-14 32-32 32h-27V119Z" fill="#DFFF55" stroke="#111111" stroke-width="10"/>
    <path d="M409 231h29c17 0 30 13 30 30v50c0 17-13 30-30 30h-29V231Z" fill="#FFD43F" stroke="#111111" stroke-width="10"/>

    <path d="M92 143H65c-15 0-27-12-27-27s12-27 27-27h51" fill="none" stroke="#8F81FF" stroke-width="24" stroke-linecap="round"/>
    <path d="M92 224H65c-15 0-27-12-27-27s12-27 27-27h51" fill="none" stroke="#8F81FF" stroke-width="24" stroke-linecap="round"/>
    <path d="M92 305H65c-15 0-27-12-27-27s12-27 27-27h51" fill="none" stroke="#8F81FF" stroke-width="24" stroke-linecap="round"/>
    <path d="M92 143H65c-15 0-27-12-27-27s12-27 27-27h51M92 224H65c-15 0-27-12-27-27s12-27 27-27h51M92 305H65c-15 0-27-12-27-27s12-27 27-27h51" fill="none" stroke="#111111" stroke-width="9" stroke-linecap="round"/>

    <circle cx="252" cy="173" r="83" fill="#FFF8E8" stroke="#111111" stroke-width="11"/>
    <circle cx="252" cy="173" r="68" fill="none" stroke="url(#purple)" stroke-width="18"/>
    <path d="M252 103v23M252 220v23M182 173h23M299 173h23" stroke="#111111" stroke-width="8" stroke-linecap="round"/>
    <path d="M218 208l130-83-49 136-30-45-51-8Z" fill="#8F81FF" stroke="#111111" stroke-width="9" stroke-linejoin="round"/>
    <path d="M218 208l51 8-39 40Z" fill="#DFFF55" stroke="#111111" stroke-width="8" stroke-linejoin="round"/>

    <rect x="68" y="296" width="181" height="148" rx="33" fill="#FFF5DF" stroke="#111111" stroke-width="11"/>
    <path d="M68 332h181v-7c0-16-13-29-29-29H97c-16 0-29 13-29 29v7Z" fill="#DFFF55" stroke="#111111" stroke-width="10"/>
    <path d="M112 283v47M158 283v47M204 283v47" stroke="#111111" stroke-width="14" stroke-linecap="round"/>
    <g fill="#BEB7FF">
      <rect x="102" y="354" width="27" height="27" rx="5"/>
      <rect x="145" y="354" width="27" height="27" rx="5"/>
      <rect x="188" y="354" width="27" height="27" rx="5"/>
      <rect x="102" y="397" width="27" height="27" rx="5"/>
      <rect x="145" y="397" width="27" height="27" rx="5"/>
    </g>
    <rect x="188" y="394" width="36" height="36" rx="8" fill="#FFD43F" stroke="#111111" stroke-width="7"/>
    <path d="M198 411l8 8 16-21" fill="none" stroke="#111111" stroke-width="6" stroke-linecap="round" stroke-linejoin="round"/>

    <path d="M298 283l89-24c20-5 40 7 45 27l33 122c5 20-7 40-27 45l-89 24c-20 5-40-7-45-27l-33-122c-5-20 7-40 27-45Z" fill="#FFD43F" stroke="#111111" stroke-width="10"/>
    <rect x="258" y="304" width="199" height="133" rx="31" fill="url(#lime)" stroke="#111111" stroke-width="11"/>
    <path d="M296 336h82M296 361h68M296 386h78" stroke="#ffffff" stroke-width="5" stroke-linecap="round" stroke-dasharray="12 10" opacity="0.75"/>
    <text x="312" y="395" font-family="Arial Black, Arial, sans-serif" font-size="91" font-weight="900" fill="#111111">₹</text>
    <rect x="407" y="347" width="64" height="52" rx="22" fill="#DFFF55" stroke="#111111" stroke-width="9"/>
    <circle cx="434" cy="373" r="13" fill="#FFD43F" stroke="#111111" stroke-width="7"/>
  </g>
</svg>
